PathFileType	4	(X/Y/Z)	s05c0303.trc
DataRate	CameraRate	NumFrames	NumMarkers	Units	OrigDataRate	OrigDataStartFrame	OrigNumFrames
200	200	6	48	mm	200	0	2000
Frame#	Time	racr			lacr			c7			jug			rlel			rdr			llel			ldr			s2			lic			ric			lasi			rasi			rpsi			lpsi			rgt			lgt			rth1			rth2			rth3			rth4			rlfc			rsh1			rsh2			rsh3			rsh4			rlmal			rcal			rtoe			rmt5			rmt1			lth1			lth2			lth4			lth3			llfc			lmfc			lsh1			lsh2			lsh3			lsh4			llmal			lcal			ltoe			lmt5			SBIKE			LBIKE			RBIKE			
		X1	Y1	Z1	X2	Y2	Z2	X3	Y3	Z3	X4	Y4	Z4	X5	Y5	Z5	X6	Y6	Z6	X7	Y7	Z7	X8	Y8	Z8	X9	Y9	Z9	X10	Y10	Z10	X11	Y11	Z11	X12	Y12	Z12	X13	Y13	Z13	X14	Y14	Z14	X15	Y15	Z15	X16	Y16	Z16	X17	Y17	Z17	X18	Y18	Z18	X19	Y19	Z19	X20	Y20	Z20	X21	Y21	Z21	X22	Y22	Z22	X23	Y23	Z23	X24	Y24	Z24	X25	Y25	Z25	X26	Y26	Z26	X27	Y27	Z27	X28	Y28	Z28	X29	Y29	Z29	X30	Y30	Z30	X31	Y31	Z31	X32	Y32	Z32	X33	Y33	Z33	X34	Y34	Z34	X35	Y35	Z35	X36	Y36	Z36	X37	Y37	Z37	X38	Y38	Z38	X39	Y39	Z39	X40	Y40	Z40	X41	Y41	Z41	X42	Y42	Z42	X43	Y43	Z43	X44	Y44	Z44	X45	Y45	Z45	X46	Y46	Z46	X47	Y47	Z47	X48	Y48	Z48	
0	0.0000	421.820712	1358.058280	-164.553706	416.976792	1369.981819	-456.076749	414.774207	1439.906462	-312.854141	379.390382	1284.200863	-309.615669	514.334122	1119.392166	-64.923276	687.125662	916.543546	-101.619977	488.452908	1112.364914	-538.838784	675.003022	914.972992	-470.969109	-117.958127	1156.396205	-277.605331	25.015706	1160.689587	-423.921044	41.187610	1187.479075	-145.773627	76.026643	1111.882435	-389.842561	75.824181	1123.886369	-171.392320	-83.452923	1202.669031	-238.467066	-82.575102	1203.296374	-326.818619	-9.076915	1059.894704	-105.203019	-46.965388	1059.702075	-447.754720	89.828653	997.362764	-91.145108	177.405083	979.119599	-84.736715	242.183094	919.128899	-87.087116	193.975936	1010.748948	-95.283720	374.289381	837.902452	-112.466185	317.352609	743.031262	-88.873059	311.680615	655.968416	-101.408533	264.581521	582.863394	-106.455164	338.944032	649.470505	-128.165868	227.851351	456.336160	-118.946539	157.970915	417.612065	-163.332367	453.726221	422.162544	-159.280779	355.632719	389.511332	-94.672772	0.000000	0.000000	-0.000000	35.136535	943.315318	-473.951501	106.206616	896.381565	-479.017417	135.512508	917.414431	-468.712432	144.231971	813.899920	-485.333958	224.351633	686.219985	-460.058780	217.530927	680.490854	-349.730222	131.170453	599.020663	-475.334514	92.233924	522.101810	-457.039589	17.471823	474.813769	-451.950883	117.162370	506.082264	-433.484076	-56.125054	380.962186	-434.207741	-130.438605	357.252115	-388.016574	146.014322	257.234855	-401.858896	33.525389	262.093062	-461.291380	-175.602376	895.787298	-275.284183	-52.906929	79.229087	-474.019282	-52.663416	78.879412	-76.353980	
1	0.0050	421.977219	1358.097364	-164.640337	417.012781	1369.990510	-456.153414	414.738334	1439.955716	-312.996705	379.515248	1284.219016	-309.677465	514.344228	1119.406352	-64.891724	687.117352	916.579604	-101.635870	488.481739	1112.359718	-538.893457	674.991446	914.925990	-470.925309	-117.929107	1156.416517	-277.591611	25.022942	1160.676617	-423.943161	41.260826	1187.452151	-145.788957	76.000307	1111.879791	-389.868674	75.861534	1123.869617	-171.394594	-83.402942	1202.700864	-238.459424	-82.547986	1203.299387	-326.831570	-9.014369	1059.883652	-105.218085	-46.986325	1059.717771	-447.758794	89.891836	997.345263	-91.183132	177.450523	979.093191	-84.764561	242.230519	919.100202	-87.132198	194.037624	1010.734750	-95.291655	374.305524	837.864349	-112.501991	317.391094	742.994417	-88.905847	311.686805	655.931192	-101.432411	264.588133	582.843015	-106.484076	338.967578	649.445870	-128.193483	227.833848	456.320125	-118.950029	157.965521	417.600266	-163.326555	453.721915	422.165591	-159.288499	355.619154	389.498878	-94.685324	0.000000	0.000000	-0.000000	35.136366	943.318823	-473.969094	106.201842	896.421761	-479.063701	135.520680	917.456330	-468.749414	144.262848	814.022648	-485.374359	224.385659	686.266170	-460.099545	217.600698	680.556252	-349.777018	131.200326	599.072672	-475.363362	92.276486	522.155241	-457.076801	17.501771	474.851659	-451.964203	117.197630	506.110112	-433.507360	-56.065542	381.010319	-434.231708	-130.390660	357.333922	-388.002751	146.022097	257.218531	-401.883181	33.526365	262.109833	-461.290082	-174.749956	896.773338	-275.022512	-52.932988	79.248658	-474.040090	-52.639523	78.880240	-76.360443	
2	0.0100	422.138966	1358.143100	-164.751608	417.068307	1369.987712	-456.250846	414.724483	1439.979618	-313.106616	379.610607	1284.262703	-309.776863	514.366631	1119.440647	-64.852989	687.110784	916.589017	-101.634763	488.474085	1112.360644	-538.936783	674.991044	914.935010	-470.936189	-117.899719	1156.425391	-277.584777	25.015093	1160.679034	-423.945107	41.316416	1187.437813	-145.803323	75.995290	1111.881194	-389.883548	75.904202	1123.877668	-171.424483	-83.370566	1202.696761	-238.455634	-82.723464	1202.860162	-326.479313	-8.953074	1059.884194	-105.233431	-46.992425	1059.721452	-447.757312	89.932681	997.366679	-91.203351	177.494425	979.087209	-84.774451	242.255709	919.078057	-87.170584	194.079429	1010.715095	-95.321228	374.344471	837.829272	-112.549607	317.416201	742.968517	-88.927158	311.680424	655.897210	-101.460706	264.582179	582.814965	-106.486849	338.966872	649.417882	-128.235445	227.825884	456.314109	-118.952846	157.931186	417.584080	-163.312714	453.707090	422.190013	-159.285388	355.616129	389.511876	-94.678151	0.000000	0.000000	-0.000000	35.133914	943.333160	-473.979357	106.206166	896.444064	-479.081374	135.524490	917.486108	-468.779411	144.253423	814.004250	-485.391156	224.431400	686.294144	-460.137269	217.667271	680.587123	-349.822252	131.235196	599.106021	-475.390950	92.325766	522.203775	-457.115219	17.546290	474.900614	-451.993341	117.233127	506.155590	-433.538745	-56.009698	381.027668	-434.235438	-130.347832	357.386023	-388.004603	146.039624	257.184831	-401.874081	33.541236	262.121714	-461.301552	-174.674327	896.849030	-275.164309	-52.941310	79.250883	-474.041506	-52.638905	78.908146	-76.367411	
3	0.0150	422.270738	1358.188956	-164.843484	417.099193	1370.006051	-456.336960	414.695058	1440.008183	-313.224450	379.714741	1284.257662	-309.858342	514.382800	1119.451389	-64.784248	687.043359	916.594536	-101.549204	488.487022	1112.338655	-538.977372	674.984143	914.906437	-470.926994	-117.872491	1156.434734	-277.569694	25.018643	1160.681553	-423.978179	41.289385	1187.349174	-146.659002	75.860975	1112.563547	-390.268166	75.934029	1123.857756	-171.435525	-83.337147	1202.699984	-238.441837	-82.530767	1203.310764	-326.819819	-8.908673	1059.887441	-105.237348	-47.013273	1059.723634	-447.768364	89.970348	997.357598	-91.212069	177.636802	978.956913	-84.910790	242.314984	919.051866	-87.205520	194.133918	1010.609184	-95.445183	374.375706	837.803289	-112.592349	317.445566	742.930760	-88.959665	310.610651	654.844135	-102.308244	264.587491	582.791777	-106.506068	339.496121	649.249692	-128.076509	227.507187	456.809341	-118.690721	157.924474	417.563361	-163.310077	453.692525	422.214068	-159.279958	355.603549	389.517438	-94.679987	0.000000	0.000000	-0.000000	35.131250	943.354972	-473.987419	106.385159	895.772275	-478.637352	135.298985	917.309305	-468.419633	144.276902	814.046370	-485.434954	224.469901	686.330530	-460.180689	217.713231	680.621831	-349.858294	131.276726	599.150153	-475.425066	92.359947	522.239067	-457.158325	17.603820	474.923933	-452.002826	116.456681	506.207064	-432.270014	-56.010228	381.169702	-434.316042	-130.295306	357.430500	-388.001093	146.054770	257.133029	-401.867792	33.567770	262.117756	-461.293463	-173.761504	898.023549	-276.120265	-52.929025	79.243128	-474.025205	-52.638132	78.891980	-76.364265	
4	0.0200	422.436892	1358.659570	-164.781838	417.125494	1370.016987	-456.409733	414.681051	1440.063800	-313.375565	379.767753	1284.724893	-309.901979	514.314694	1119.700202	-64.693136	687.078928	916.549058	-101.510462	488.603888	1112.656135	-539.470460	675.018186	914.882709	-470.984809	-117.917103	1156.546964	-277.428329	25.048529	1160.655316	-424.223096	41.212767	1187.734791	-146.531619	75.890553	1112.582426	-390.202820	75.925752	1123.848318	-171.369868	-83.285543	1202.809552	-238.318295	-82.448576	1203.427805	-327.018187	-9.034139	1060.241879	-105.212277	-47.058041	1059.823749	-447.776759	89.979169	997.770013	-90.981277	177.620214	979.179407	-84.889478	242.197839	919.305413	-87.224626	194.159449	1010.974999	-95.221698	374.062722	837.869840	-113.194543	317.325339	743.171326	-88.874011	310.543042	655.160953	-102.176900	264.425703	583.031143	-106.413878	339.233575	649.605671	-127.947009	227.485982	456.787369	-118.636612	157.859745	417.615150	-163.155341	453.576003	422.443491	-159.359127	355.388772	389.843897	-94.450620	0.000000	0.000000	-0.000000	35.149549	943.410324	-473.865183	106.394774	895.821861	-478.718844	135.292377	917.365411	-468.506861	144.398127	814.061806	-485.342119	224.523692	686.500782	-460.109962	217.521593	681.136198	-349.497935	131.285251	599.279318	-475.350223	92.281276	522.520398	-457.142002	17.653450	474.928640	-451.965459	116.472277	506.299329	-432.288877	-55.955976	381.271015	-434.478542	-130.286357	357.583254	-388.154706	146.016510	257.114872	-401.941396	33.572670	262.102093	-461.303899	-173.969853	897.717409	-276.286232	-52.899601	79.171297	-474.132056	-52.880982	79.183594	-76.420475	
5	0.0250	422.588776	1358.755576	-164.826239	417.135904	1370.017676	-456.462335	414.633296	1440.115401	-313.456895	379.855703	1284.800570	-309.990849	514.341714	1119.694984	-64.621906	687.089004	916.529660	-101.534083	488.554264	1112.596186	-539.373222	675.044961	914.881582	-470.991932	-117.884496	1156.625452	-277.379537	25.105751	1160.633410	-424.296271	41.270096	1187.741835	-146.603248	75.902108	1112.588469	-390.197848	76.012953	1123.861954	-171.441452	-83.242820	1202.837969	-238.281006	-82.426294	1203.448741	-327.091796	-8.868702	1060.139317	-105.390846	-47.064146	1059.844969	-447.778395	90.133841	997.698274	-91.100950	177.655581	979.215634	-84.901558	242.213592	919.256535	-87.243371	194.236343	1011.051772	-95.143905	374.158904	837.814836	-113.244599	317.397408	743.039682	-88.912589	310.561456	655.098388	-102.250881	264.453227	582.953379	-106.438837	339.309793	649.462786	-128.143620	227.460581	456.804951	-118.619144	157.824787	417.617830	-163.091934	453.559084	422.443376	-159.334026	355.432136	389.805677	-94.503140	0.000000	0.000000	-0.000000	35.171225	943.440883	-473.861881	106.396271	895.841420	-478.755871	135.306966	917.393894	-468.557635	144.430402	814.105111	-485.359277	224.553655	686.534176	-460.119136	217.649173	681.077354	-349.660482	131.325736	599.300755	-475.349052	92.293367	522.574231	-457.166513	17.698461	474.946407	-451.962502	116.506615	506.352736	-432.330471	-55.911525	381.287232	-434.538897	-130.247817	357.612608	-388.169772	146.019717	257.090467	-401.945523	33.587118	262.079764	-461.317774	-173.981469	897.656789	-276.444407	-52.874036	79.153662	-474.148259	-52.873247	79.196232	-76.467395	
